<?xml version="1.0" encoding="utf-8"?>
<!-- Generator: Adobe Illustrator 16.0.4, SVG Export Plug-In . SVG Version: 6.00 Build 0)  -->
<!DOCTYPE svg PUBLIC "-//W3C//DTD SVG 1.1//EN" "http://www.w3.org/Graphics/SVG/1.1/DTD/svg11.dtd">
<svg version="1.1" id="Layer_1" xmlns="http://www.w3.org/2000/svg" xmlns:xlink="http://www.w3.org/1999/xlink" x="0px" y="0px"
	 width="262.988px" height="80px" viewBox="0 14.083 262.988 80" enable-background="new 0 14.083 262.988 80" xml:space="preserve"
	>
<pattern  x="-264.006" y="652.5" width="262.988" height="79.996" patternUnits="userSpaceOnUse" id="Unnamed_Pattern" viewBox="0 -79.996 262.988 79.996" overflow="visible">
	<g>
		<polygon fill="none" points="0,0 262.988,0 262.988,-79.996 0,-79.996 		"/>
		<polygon fill="#00A0F0" points="0,0 262.988,0 262.988,-79.996 0,-79.996 		"/>
	</g>
</pattern>
<rect x="7.295" y="20.03" fill="none" width="263" height="80"/>
<rect x="0" y="14.088" fill="#00A0F0" stroke="url(#Unnamed_Pattern)" stroke-miterlimit="10" width="262.988" height="79.996"/>
<rect x="7.295" y="20.03" fill="none" width="263" height="80"/>
<polygon fill="#FFFFFF" points="300.082,175.5 209.732,136.602 274.643,-13.043 364.993,25.856 "/>
<rect x="7.295" y="20.03" fill="none" width="263" height="80"/>
<polygon fill="#FFFFFF" points="165.386,135.904 137.016,123.689 207.302,-38.327 235.675,-26.111 "/>
<rect x="7.295" y="20.03" fill="none" width="263" height="80"/>
<polygon fill="#FFFFFF" points="98.968,145.988 80.897,138.209 163.377,-51.939 181.449,-44.158 "/>
<rect x="7.295" y="20.03" fill="none" width="263" height="80"/>
<polygon fill="#FFFFFF" points="58.721,135.836 50.554,132.318 134.533,-61.18 142.702,-57.662 "/>
<rect x="7.295" y="20.03" fill="none" width="263" height="80"/>
<polygon fill="#FFFFFF" points="34.342,123.166 29.824,121.219 109.376,-62.178 113.892,-60.231 "/>
<rect x="7.295" y="20.03" fill="none" width="263" height="80"/>
<polygon fill="#FFFFFF" points="20.243,108.508 17.985,107.537 92.656,-64.609 94.913,-63.635 "/>
<rect x="7.295" y="20.03" fill="none" width="263" height="80"/>
<line fill="none" stroke="#FFFFFF" stroke-width="1.6564" stroke-miterlimit="10" x1="77.183" y1="-66.501" x2="-10.356" y2="135.34"/>
</svg>
